#!OML:ASF F:\twosubjects\two\Thursday\Session 1\justin.ASF
:FULLY-SPECIFIED
:DEGREES
246
root 10.6529 18.094 1.24851 -172.047 16.5784 180.968
lowerback 8.33456 1.74135 3.63354
upperback 1.50301 3.09304 4.33161
thorax -3.17056 1.64541 2.1048
lowerneck -22.0061 -2.63437 -5.26416
upperneck 26.644 -2.5801 4.62027
head 12.6686 -0.795424 2.2792
rclavicle 3.37934e-014 -5.08889e-014
rhumerus 43.2492 13.7278 -68.0789
rradius 60.689
rwrist -12.8677
rhand -43.7417 15.4398
rfingers 7.12502
rthumb -16.5726 -13.8725
lclavicle 3.37934e-014 -5.08889e-014
lhumerus 42.0032 -3.55651 73.2229
lradius 40.6977
lwrist 8.71791
lhand -27.0433 43.4634
lfingers 7.12502
lthumb -0.461879 433.443
rfemur -23.2881 -5.41081 18.0284
rtibia 36.4769
rfoot -19.9134 -8.52472
rtoes -4.42171
lfemur -15.4199 3.65225 -11.5357
ltibia 39.2642
lfoot -9.73282 0.809669
ltoes -18.6802
247
root 10.6909 18.1111 1.24312 -172.094 16.4004 181.03
lowerback 8.4945 1.67744 3.72353
upperback 1.45092 3.031 4.33219
thorax -3.30872 1.61225 2.05536
lowerneck -22.2049 -2.52756 -5.34392
upperneck 26.6628 -2.33249 4.40183
head 12.6993 -0.727945 2.25033
rclavicle 2.06736e-014 4.77083e-014
rhumerus 42.4158 14.0501 -68.5651
rradius 62.3203
rwrist -12.0897
rhand -45.6088 17.9537
rfingers 7.12502
rthumb -18.3694 -11.1989
lclavicle 2.06736e-014 4.77083e-014
lhumerus 41.9859 -3.15951 73.3167
lradius 40.258
lwrist 8.77795
lhand -26.6288 43.5487
lfingers 7.12502
lthumb -0.0615533 433.528
rfemur -23.0328 -5.48634 18.2472
rtibia 36.2804
rfoot -19.9073 -8.61875
rtoes -4.50556
lfemur -16.0676 3.57398 -11.1853
ltibia 40.3441
lfoot -8.88787 -0.0923763
ltoes -19.5025
248
root 10.7243 18.1112 1.23925 -172.187 16.1775 180.805
lowerback 8.5106 1.91149 3.90454
upperback 1.59367 3.31122 3.90262
thorax -3.13541 1.73995 1.48007
lowerneck -23.043 -2.71177 -4.68669
upperneck 26.6529 -2.71813 3.98467
head 12.8691 -0.894516 1.90551
rclavicle 2.66371e-014 6.36111e-015
rhumerus 41.533 13.0244 -69.4458
rradius 63.8882
rwrist -11.2372
rhand -46.5902 20.3305
rfingers 7.12502
rthumb -19.3133 -8.73042
lclavicle 2.66371e-014 6.36111e-015
lhumerus 42.8062 -3.84816 72.9486
lradius 39.8872
lwrist 9.00615
lhand -26.1032 43.7087
lfingers 7.12502
lthumb 0.446109 433.688
rfemur -22.7998 -5.55917 18.1336
rtibia 36.0454
rfoot -19.9385 -8.69157
rtoes -4.18998
lfemur -16.7683 3.15233 -11.1454
ltibia 41.3088
lfoot -7.92301 -0.708432
ltoes -19.6465
249
root 10.7535 18.1107 1.24397 -172.399 15.8804 180.954
lowerback 8.75159 1.80294 4.34814
upperback 1.632 3.22683 3.83939
thorax -3.20247 1.69546 1.1681
lowerneck -22.8585 -2.63714 -4.5541
upperneck 26.3518 -2.52024 3.45398
head 12.689 -0.878241 1.70561
rclavicle 5.40694e-014 2.70347e-014
rhumerus 40.573 12.9752 -70.2564
rradius 65.7393
rwrist -10.7409
rhand -46.5088 21.0121
rfingers 7.12502
rthumb -19.235 -8.05669
lclavicle 5.40694e-014 2.70347e-014
lhumerus 42.8956 -3.6466 72.8258
lradius 39.5406
lwrist 9.19518
lhand -25.5423 43.2439
lfingers 7.12502
lthumb 0.987823 433.221
rfemur -22.3702 -5.74247 18.3786
rtibia 35.8855
rfoot -20.0767 -8.63617
rtoes -3.58332
lfemur -17.2568 2.61656 -10.6974
ltibia 42.2176
lfoot -7.05295 -1.33826
ltoes -18.3743
250
root 10.7825 18.113 1.25307 -172.79 15.4138 181.26
lowerback 9.36453 1.65154 4.94995
upperback 1.66431 3.14666 3.8332
thorax -3.47967 1.65225 0.813073
lowerneck -22.7559 -2.56847 -4.6051
upperneck 26.1679 -2.35421 3.25417
head 12.5844 -0.843317 1.66267
rclavicle -4.85035e-014 -7.15625e-014
rhumerus 39.5329 12.9081 -70.8379
rradius 67.6289
rwrist -10.5384
rhand -46.5402 21.5642
rfingers 7.12502
rthumb -19.2652 -7.50159
lclavicle -4.85035e-014 -7.15625e-014
lhumerus 42.8623 -3.5172 72.8139
lradius 39.2726
lwrist 9.3767
lhand -24.6664 42.7244
lfingers 7.12502
lthumb 1.83373 432.696
rfemur -21.734 -6.07827 18.7919
rtibia 35.7725
rfoot -20.1832 -8.72458
rtoes -3.33884
lfemur -17.5073 2.0752 -10.057
ltibia 43.0449
lfoot -6.23369 -2.1427
ltoes -17.3027
251
root 10.8192 18.1151 1.25334 -173.1 15.2053 181.377
lowerback 9.81967 1.57977 5.09106
upperback 1.72315 3.11125 3.84278
thorax -3.66582 1.63501 0.732866
lowerneck -22.9584 -2.41912 -4.54396
upperneck 26.0709 -2.08275 2.96141
head 12.5685 -0.764045 1.5836
rclavicle 2.78299e-015 -6.20208e-014
rhumerus 38.5931 13.0476 -71.1255
rradius 69.5841
rwrist -10.7046
rhand -47.2857 22.4522
rfingers 7.12502
rthumb -19.982 -6.54044
lclavicle 2.78299e-015 -6.20208e-014
lhumerus 42.8094 -3.2777 72.5286
lradius 39.1343
lwrist 9.9232
lhand -23.4516 42.2128
lfingers 7.12502
lthumb 3.00696 432.171
rfemur -21.2448 -6.07456 19.0144
rtibia 35.6823
rfoot -20.2494 -8.99071
rtoes -3.65677
lfemur -17.7655 1.75349 -9.65492
ltibia 43.7916
lfoot -5.66461 -2.83
ltoes -17.172
252
root 10.8533 18.1202 1.24668 -173.249 15.2168 181.263
lowerback 9.99061 1.07684 4.53267
upperback 1.85285 2.45114 4.32396
thorax -3.68491 1.33524 1.62474
lowerneck -23.4403 -1.89412 -5.4665
upperneck 26.0698 -0.868349 2.58925
head 12.6156 -0.384454 1.80455
rclavicle 4.13472e-014 2.06736e-014
rhumerus 38.5477 15.0409 -71.0507
rradius 71.4013
rwrist -11.3647
rhand -47.959 22.96
rfingers 7.12502
rthumb -20.629 -5.96374
lclavicle 4.13472e-014 2.06736e-014
lhumerus 42.4682 -1.07938 72.8144
lradius 38.6214
lwrist 10.1493
lhand -22.8355 41.8002
lfingers 7.12502
lthumb 3.60198 431.749
rfemur -21.034 -6.15946 18.9917
rtibia 35.6486
rfoot -20.2404 -8.93111
rtoes -3.69139
lfemur -18.1345 1.50455 -9.5535
ltibia 44.4487
lfoot -5.56156 -3.41338
ltoes -16.7266
